<svg xmlns="http://www.w3.org/2000/svg" viewBox="0 0 934.14 363.09">
  <metadata>
        <desc>Remasterization of the original icon property of Sony Interactive Entertainment</desc>
        <author>Democracy Officer</author>
    </metadata>
  <title>Helldivers 2 Logo with name</title>
<g id="Helldivers_2_logo_with_name" data-name="Helldivers 2 logo with name">
        <g>
          <polygon points="270.59 363.09 270.59 325.74 336.21 325.74 336.21 287.2 433.81 287.2 440.84 295.78 440.93 325.45 492.44 325.43 492.48 296.31 499.63 287.07 596.89 287.07 596.89 325.5 662.67 325.5 662.67 363.09 270.59 363.09"/>
          <polygon points="637.36 272.48 646.41 261.2 759.17 261.2 749.97 272.48 637.36 272.48"/>
          <polygon id="thin_short_3" data-name="thin short 3" points="624.77 272.52 511.92 272.52 521.2 261.08 633.74 261.08 624.77 272.52"/>
          <polygon id="thin_line_2" data-name="thin line 2" points="901.42 241.03 891.97 252.4 527.71 252.4 517.12 241.03 901.42 241.03"/>
          <polygon id="thick_line_2" data-name="thick line 2" points="934.14 201.76 909.01 231.97 513.34 231.97 515.26 201.76 934.14 201.76"/>
          <path d="M503.23,241.36l12.12,11.77-16.07,19.64-10.92-4.32-4.76,15.92-17,4.92-16.89-4.91L445,268.48l-10.94,4.28-16.16-19.41L430.08,241l-2.59-39.4,39.15-13,39.19,13.26Zm-15.09,16a10.19,10.19,0,0,0,10-10.18,10.14,10.14,0,1,0-20.27.3A10.22,10.22,0,0,0,488.14,257.38Zm-42.94-20.2a10.1,10.1,0,0,0,.14,20.2,10.1,10.1,0,1,0-.14-20.2Zm28.08,30.1c-2.23-3.45-4.23-6.53-6.6-10.17L460,267.33l3.22,2.56,3.48-3.65c1.25,1.34,2.31,2.46,3.48,3.7Z"/>
          <polygon id="thin_short_2" data-name="thin short 2" points="308.56 272.47 299.57 261.27 412.11 261.27 421.06 272.47 308.56 272.47"/>
          <polygon id="thin_short_1" data-name="thin short 1" points="286.71 261.26 295.86 272.42 183.41 272.42 174.56 261.26 286.71 261.26"/>
          <polygon id="thin_long_1" data-name="thin long 1" points="41.63 252.37 32.71 240.95 416.11 240.95 405.37 252.37 41.63 252.37"/>
          <polygon id="thick_line_1" data-name="thick line 1" points="0 201.56 418 201.46 420.03 231.81 24.3 231.81 0 202.94 0 201.56"/>
          <polygon points="839.71 150.24 902.95 150.24 902.95 142.28 854.4 142.28 840.12 124.52 840.05 107.55 854.1 90.43 911.31 90.43 925.7 107.84 925.64 111.83 869.71 112 869.71 119.26 918.43 119.26 933.16 136.92 933.16 156.55 918.72 173.89 854.13 173.89 839.71 156.36 839.71 150.24"/>
          <path d="M737.71,173.74V90.51H815l13.93,17.35,0,20.16-9.25,11.75,10,12.28-.07,21.72H799.13V150.5h-31.2v23.24ZM768,128.26h30.52V112.34H768Z"/>
          <polygon points="725.14 173.83 641.6 173.83 641.6 90.65 725.12 90.65 725.12 111.93 672.05 111.93 672.05 119.31 721.77 119.31 721.77 141.89 672.1 141.89 672.1 150.12 725.14 150.12 725.14 173.83"/>
          <polygon points="604.25 90.47 635.55 90.47 598.14 173.76 566.38 173.76 529 90.61 560.19 90.61 582.26 145.39 604.25 90.47"/>
          <rect x="492.74" y="90.56" width="30.2" height="83.29"/>
          <path d="M480.39,156.44l-14.53,17.42H379.93V90.55h86l14.44,17.32Zm-69.86-6.51h38.94V115.77H410.53Z"/>
          <polygon points="293.93 90.46 324.24 90.46 324.24 150.15 368.99 150.15 368.99 173.73 293.93 173.73 293.93 90.46"/>
          <polygon points="283.03 150.05 283.03 173.72 207.99 173.72 207.99 90.55 238.13 90.55 238.13 150.05 283.03 150.05"/>
          <polygon points="193.85 150.13 193.85 173.66 110.06 173.66 110.06 90.59 193.71 90.59 193.71 111.91 140.65 111.91 140.65 119.42 190.34 119.42 190.34 142.03 140.56 142.03 140.56 150.13 193.85 150.13"/>
          <polygon points="0 90.43 30.75 90.43 30.75 117.31 65.42 117.31 65.42 90.64 95.83 90.64 95.83 173.76 65.54 173.76 65.54 145.25 30.88 145.25 30.88 173.95 0 173.95 0 90.43"/>
          <polygon points="662.67 0 662.67 37.36 597.11 37.36 597.11 75.89 492.5 75.89 492.5 37.66 440.94 37.66 440.94 75.91 336.44 75.91 336.44 37.6 270.59 37.6 270.59 0 662.67 0"/>
        </g>
        <g>
          <polygon points="270.59 363.09 270.59 325.74 336.21 325.74 336.21 287.2 433.81 287.2 440.84 295.78 440.93 325.45 492.44 325.43 492.48 296.31 499.63 287.07 596.89 287.07 596.89 325.5 662.67 325.5 662.67 363.09 270.59 363.09"/>
          <polygon points="637.36 272.48 646.41 261.2 759.17 261.2 749.97 272.48 637.36 272.48"/>
          <polygon id="thin_short_3-2" data-name="thin short 3" points="624.77 272.52 511.92 272.52 521.2 261.08 633.74 261.08 624.77 272.52"/>
          <polygon id="thin_line_2-2" data-name="thin line 2" points="901.42 241.03 891.97 252.4 527.71 252.4 517.12 241.03 901.42 241.03"/>
          <polygon id="thick_line_2-2" data-name="thick line 2" points="934.14 201.76 909.01 231.97 513.34 231.97 515.26 201.76 934.14 201.76"/>
          <path d="M503.23,241.36l12.12,11.77-16.07,19.64-10.92-4.32-4.76,15.92-17,4.92-16.89-4.91L445,268.48l-10.94,4.28-16.16-19.41L430.08,241l-2.59-39.4,39.15-13,39.19,13.26Zm-15.09,16a10.19,10.19,0,0,0,10-10.18,10.14,10.14,0,1,0-20.27.3A10.22,10.22,0,0,0,488.14,257.38Zm-42.94-20.2a10.1,10.1,0,0,0,.14,20.2,10.1,10.1,0,1,0-.14-20.2Zm28.08,30.1c-2.23-3.45-4.23-6.53-6.6-10.17L460,267.33l3.22,2.56,3.48-3.65c1.25,1.34,2.31,2.46,3.48,3.7Z"/>
          <polygon id="thin_short_2-2" data-name="thin short 2" points="308.56 272.47 299.57 261.27 412.11 261.27 421.06 272.47 308.56 272.47"/>
          <polygon id="thin_short_1-2" data-name="thin short 1" points="286.71 261.26 295.86 272.42 183.41 272.42 174.56 261.26 286.71 261.26"/>
          <polygon id="thin_long_1-2" data-name="thin long 1" points="41.63 252.37 32.71 240.95 416.11 240.95 405.37 252.37 41.63 252.37"/>
          <polygon id="thick_line_1-2" data-name="thick line 1" points="0 201.56 418 201.46 420.03 231.81 24.3 231.81 0 202.94 0 201.56"/>
          <polygon points="839.71 150.24 902.95 150.24 902.95 142.28 854.4 142.28 840.12 124.52 840.05 107.55 854.1 90.43 911.31 90.43 925.7 107.84 925.64 111.83 869.71 112 869.71 119.26 918.43 119.26 933.16 136.92 933.16 156.55 918.72 173.89 854.13 173.89 839.71 156.36 839.71 150.24"/>
          <path d="M737.71,173.74V90.51H815l13.93,17.35,0,20.16-9.25,11.75,10,12.28-.07,21.72H799.13V150.5h-31.2v23.24ZM768,128.26h30.52V112.34H768Z"/>
          <polygon points="725.14 173.83 641.6 173.83 641.6 90.65 725.12 90.65 725.12 111.93 672.05 111.93 672.05 119.31 721.77 119.31 721.77 141.89 672.1 141.89 672.1 150.12 725.14 150.12 725.14 173.83"/>
          <polygon points="604.25 90.47 635.55 90.47 598.14 173.76 566.38 173.76 529 90.61 560.19 90.61 582.26 145.39 604.25 90.47"/>
          <rect x="492.74" y="90.56" width="30.2" height="83.29"/>
          <path d="M480.39,156.44l-14.53,17.42H379.93V90.55h86l14.44,17.32Zm-69.86-6.51h38.94V115.77H410.53Z"/>
          <polygon points="293.93 90.46 324.24 90.46 324.24 150.15 368.99 150.15 368.99 173.73 293.93 173.73 293.93 90.46"/>
          <polygon points="283.03 150.05 283.03 173.72 207.99 173.72 207.99 90.55 238.13 90.55 238.13 150.05 283.03 150.05"/>
          <polygon points="193.85 150.13 193.85 173.66 110.06 173.66 110.06 90.59 193.71 90.59 193.71 111.91 140.65 111.91 140.65 119.42 190.34 119.42 190.34 142.03 140.56 142.03 140.56 150.13 193.85 150.13"/>
          <polygon points="0 90.43 30.75 90.43 30.75 117.31 65.42 117.31 65.42 90.64 95.83 90.64 95.83 173.76 65.54 173.76 65.54 145.25 30.88 145.25 30.88 173.95 0 173.95 0 90.43"/>
          <polygon points="662.67 0 662.67 37.36 597.11 37.36 597.11 75.89 492.5 75.89 492.5 37.66 440.94 37.66 440.94 75.91 336.44 75.91 336.44 37.6 270.59 37.6 270.59 0 662.67 0"/>
        </g>
      </g>
</svg>
