<?xml version="1.0" encoding="utf-8"?>
<svg viewBox="0 0 256 256" xmlns="http://www.w3.org/2000/svg">
  <g id="g1">
    <g id="g31">
      <path style="fill:#ffffff;fill-opacity:1;stroke-width:1.57349" d="M 14.771334,192.43128 14.463024,62.860548 125.10452,0.04338094 235.9331,62.763802 235.81538,192.51109 125.12728,256.01753 Z M 141.0739,129.62513 c 0,0 -5.01642,-3.44265 -7.90961,-4.13759 -5.07023,-1.21784 -10.57617,-1.06957 -15.6426,0.16415 -2.91496,0.70999 -8.03542,4.05461 -8.03542,4.05461 l -7.70173,58.7232 47.31618,0.0747 z m 49.73464,0.44056 c 2.31871,-7.10727 4.04057,-14.5913 4.00563,-22.06711 -0.039,-8.393136 -2.00302,-16.793297 -4.72858,-24.731611 -2.14209,-6.23911 -4.18005,-10.325985 -9.00726,-17.621104 l -6.84831,6.855279 c 0,0 5.59181,9.025174 7.31646,14.000296 2.38141,6.86936 3.93963,14.16584 4.03019,21.43567 0.0808,6.53744 -1.2588,13.09978 -3.1429,19.36031 -1.85804,6.17379 -7.95285,17.6313 -7.95285,17.6313 l 5.97879,6.49793 c 0,0 7.89493,-13.83924 10.34883,-21.36096 z m -15.44991,-5.2898 c 2.11094,-5.34392 3.65848,-11.10528 3.62863,-16.85089 -0.034,-6.40831 -1.99463,-12.750003 -4.24215,-18.751383 -1.45089,-3.874044 -5.88663,-10.92551 -5.88663,-10.92551 l -6.61598,6.199861 c 0,0 3.41107,4.817872 4.4051,7.559761 1.84106,5.078896 2.6995,10.576541 2.70918,15.978821 0.01,4.72162 -0.72224,9.53015 -2.31801,13.97399 -1.32539,3.69111 -5.89821,10.18036 -5.89821,10.18036 l 6.37745,5.70587 c 0,0 5.97399,-8.34549 7.84062,-13.07088 z m -50.64419,-6.95622 c 5.25404,0.054 10.52265,1.00934 15.56602,2.48301 4.31594,1.26115 12.36892,5.38176 12.36892,5.38176 L 152.5093,89.830931 c 0,0 -8.24807,4.010799 -12.62471,5.309382 -4.96749,1.473944 -10.1158,2.823047 -15.29705,2.76422 -5.20641,-0.05891 -10.31778,-1.627289 -15.30414,-3.125984 -4.11255,-1.236053 -11.952073,-4.807731 -11.952073,-4.807731 l -0.140078,35.786112 c 0,0 8.207731,-4.56679 12.676621,-5.88088 4.79307,-1.40948 9.85063,-2.10773 14.84637,-2.05638 z m -40.81154,4.75629 c -2.171744,-4.55203 -4.089492,-9.50056 -4.174357,-14.54334 -0.08287,-4.91119 1.727651,-9.746015 3.586592,-14.292548 1.321797,-3.232928 5.300563,-9.038487 5.300563,-9.038487 L 82.14959,78.772432 c 0,0 -5.081911,7.770482 -6.790292,12.054025 -2.197702,5.510402 -4.323119,11.329293 -4.333802,17.261783 -0.01098,6.18337 1.67723,12.48224 4.452414,18.00789 2.071602,4.12481 5.996555,7.23222 8.798396,10.69307 l 5.662187,-5.59164 c 0,0 -4.525097,-5.45539 -6.035593,-8.6216 z m -15.121931,5.74384 c -2.398183,-6.55484 -4.667272,-13.41121 -4.763119,-20.39022 -0.10074,-7.34155 1.964073,-14.65919 4.419365,-21.5787 1.752012,-4.937281 7.256951,-13.941051 7.256951,-13.941051 l -5.38473,-7.003433 c 0,0 -7.524324,12.001648 -10.019752,18.581085 -2.895192,7.633081 -5.444634,15.680983 -5.595394,23.843219 -0.149363,8.08538 1.629007,16.31264 4.666672,23.80723 2.969673,7.32723 12.930419,19.88415 12.930419,19.88415 l 4.940138,-6.64702 c 0,0 -6.321938,-10.73669 -8.45055,-16.55526 z" id="path48-0"/>
      <rect style="fill:#ffffff;fill-opacity:1;stroke-width:0.402821" id="rect59-1" width="152.25342" height="149.0067" x="51.718784" y="57.262344"/>
    </g>
    <g id="g49" transform="matrix(3.5478939,0,0,3.5478939,1485.492,13.10486)">
      <g id="g30-4-9" transform="translate(111.05393,112.56165)" style="display:none">
        <rect style="fill:#ffffff;fill-opacity:1;stroke-width:0.106436" id="rect59-1-4-0-1" width="41.408817" height="38.250198" x="-514.46204" y="-101.57306"/>
        <path style="fill:#ffffff;fill-opacity:1;stroke:#ffffff;stroke-width:0.440529" d="m -525.37812,-62.14084 -0.0863,-36.275822 30.97622,-17.586868 31.02859,17.559788 -0.0329,36.325247 -30.98926,17.779846 z m 35.36084,-17.58379 c 0,0 -1.40445,-0.963836 -2.21445,-1.158398 -1.41951,-0.340958 -2.961,-0.299446 -4.37945,0.04596 -0.8161,0.198775 -2.24967,1.135166 -2.24967,1.135166 l -2.15625,16.44069 13.24708,0.02091 z m 13.92417,0.123344 c 0.64916,-1.989818 1.13123,-4.085116 1.12145,-6.178113 -0.0109,-2.349819 -0.56079,-4.701606 -1.32386,-6.92409 -0.59972,-1.746759 -1.17029,-2.890958 -2.52175,-4.933363 l -1.91732,1.919263 c 0,0 1.56553,2.526771 2.04838,3.919653 0.66673,1.923209 1.10298,3.965999 1.12833,6.001328 0.0226,1.830282 -0.35242,3.667535 -0.87992,5.420291 -0.52019,1.728472 -2.22654,4.936221 -2.22654,4.936221 l 1.67387,1.819221 c 0,0 2.21034,-3.874562 2.89736,-5.980411 z m -4.32551,-1.480982 c 0.59101,-1.496133 1.02427,-3.109136 1.01591,-4.717731 -0.009,-1.794129 -0.55844,-3.569608 -1.18767,-5.24981 -0.40621,-1.084613 -1.64808,-3.058807 -1.64808,-3.058807 l -1.85226,1.735771 c 0,0 0.95498,1.348856 1.23329,2.1165 0.51543,1.421935 0.75577,2.961106 0.75848,4.473579 0.003,1.321907 -0.2022,2.668148 -0.64897,3.912287 -0.37107,1.033397 -1.65132,2.850187 -1.65132,2.850187 l 1.78549,1.597468 c 0,0 1.67253,-2.33648 2.19513,-3.659444 z m -14.17881,-1.947527 c 1.47097,0.01512 2.94602,0.282583 4.35801,0.695166 1.20833,0.353083 3.46291,1.506727 3.46291,1.506727 l -0.0392,-10.037879 c 0,0 -2.30921,1.1229 -3.53453,1.486463 -1.39075,0.412659 -2.83211,0.790367 -4.2827,0.773897 -1.45765,-0.01649 -2.88867,-0.455591 -4.28469,-0.875179 -1.15139,-0.346057 -3.34622,-1.346017 -3.34622,-1.346017 l -0.0392,10.01901 c 0,0 2.29791,-1.27856 3.54906,-1.646466 1.34192,-0.394611 2.75787,-0.590099 4.15653,-0.575722 z m -11.42597,1.331614 c -0.60803,-1.274428 -1.14494,-2.659865 -1.1687,-4.071687 -0.0232,-1.374982 0.48369,-2.728584 1.00414,-4.001474 0.37006,-0.90512 1.48399,-2.530498 1.48399,-2.530498 l -1.81031,-1.659981 c 0,0 -1.42278,2.175496 -1.90107,3.374757 -0.61529,1.542742 -1.21034,3.171853 -1.21333,4.832768 -0.003,1.731153 0.46957,3.494643 1.24654,5.041655 0.57998,1.15482 1.67885,2.024799 2.46327,2.99373 l 1.58525,-1.565487 c 0,0 -1.26689,-1.527342 -1.68978,-2.413783 z m -4.23368,1.608099 c -0.67142,-1.835154 -1.30669,-3.754726 -1.33353,-5.708634 -0.0282,-2.055408 0.54988,-4.104122 1.23729,-6.041372 0.49051,-1.382288 2.03172,-3.903066 2.03172,-3.903066 l -1.50756,-1.960748 c 0,0 -2.10658,3.360094 -2.80522,5.202135 -0.81056,2.137028 -1.52433,4.390193 -1.56654,6.675367 -0.0419,2.263658 0.45608,4.567038 1.30653,6.665293 0.83142,2.051398 3.62012,5.56695 3.62012,5.56695 l 1.38308,-1.860962 c 0,0 -1.76994,-3.005943 -2.36589,-4.634963 z" id="path48-0-4-73-0"/>
      </g>
      <ellipse style="fill:#000000;fill-rule:evenodd;stroke-width:1.28864" id="path46" cx="-383.4375" cy="32.75" rx="18.1875" ry="18.375"/>
      <path style="fill:#ffffff;stroke-width:0.144109" d="m -391.84028,44.460755 -0.006,0.0035 v -0.0042 -0.0042 l 1.14413,-3.527048 1.14414,-3.527054 2.65455,-8.184358 2.65455,-8.184358 0.006,-0.01234 0.006,-0.01234 4.4e-4,0.111264 4.3e-4,0.111272 0.0463,8.697422 0.0463,8.69743 2e-5,0.204475 2e-5,0.204476 -1.15749,0.816184 -1.15749,0.816178 -2.68823,1.895611 -2.68821,1.895611 z m 16.95253,0.0021 -0.005,-4.28e-4 -3.84492,-2.711985 -3.84491,-2.711977 -10e-4,-0.172779 -0.001,-0.172779 0.0465,-8.768514 0.0465,-8.768514 10e-4,-0.07108 0.001,-0.07109 0.0291,0.08654 0.0291,0.08654 3.77032,11.624385 3.77033,11.624378 0.004,0.01388 0.004,0.01388 z m -14.83697,-10.951835 -0.004,0.01066 -3.51946,-2.622349 -3.51946,-2.622343 4.24844,-0.0014 4.24843,-0.0014 0.003,0.0028 0.003,0.0028 -0.72809,2.610213 -0.72809,2.610213 z m 12.72443,0.01101 h -0.003 l -0.004,-0.0108 -0.004,-0.0108 -0.72385,-2.595616 -0.72385,-2.595616 -0.004,-0.0176 -0.003,-0.0176 h 4.25195 4.25195 l -0.0122,0.01178 -0.0122,0.01178 -3.50647,2.612323 -3.50649,2.612317 z" id="path45"/>
      <rect style="fill:#000000;fill-rule:evenodd" id="rect46" width="2.15625" height="3.875" x="-384.59375" y="11.375"/>
      <rect style="fill:#000000;fill-rule:evenodd" id="rect46-8" width="2.15625" height="3.875" x="-384.66406" y="50.539062"/>
      <rect style="fill:#000000;fill-rule:evenodd" id="rect46-6" width="2.15625" height="3.875" x="31.848112" y="400.84052" transform="rotate(90)"/>
      <rect style="fill:#000000;fill-rule:evenodd" id="rect46-7" width="2.15625" height="3.875" x="31.903568" y="362.36002" transform="rotate(90)"/>
    </g>
  </g>
  <rect x="70.263" y="77.331" width="105.554" height="100.599" style="stroke: rgb(0, 0, 0); fill-rule: nonzero; fill: rgb(255, 255, 255); paint-order: stroke; stroke-opacity: 0;"/>
  <text style="font-family: Arial, sans-serif; font-size: 91.7px; white-space: pre;" x="99.407" y="161.397">?</text>
  <rect x="48.734" y="94.206" width="23.095" height="70.067" style="fill: rgb(255, 255, 255); stroke: rgb(255, 255, 255);"/>
  <rect x="85.138" y="53.54" width="81.81" height="30.141" style="stroke: rgb(255, 255, 255); fill: rgb(255, 255, 255);"/>
  <rect x="174.777" y="87.595" width="26.227" height="85.333" style="fill: rgb(255, 255, 255); stroke: rgb(255, 255, 255);"/>
  <rect x="82.398" y="175.668" width="86.899" height="14.092" style="stroke: rgb(255, 255, 255); fill: rgb(255, 251, 251);"/>
  <rect x="102.752" y="187.02" width="44.624" height="7.829" style="fill: rgb(255, 255, 255); stroke: rgb(255, 255, 255);"/>
  <rect x="120.367" y="192.892" width="9.003" height="15.266" style="stroke: rgb(255, 255, 255); fill: rgb(255, 255, 255);"/>
</svg>